<svg width="80" height="80" viewBox="0 0 80 80" fill="none" xmlns="http://www.w3.org/2000/svg">
<path d="M61.3173 23.4071C58.6683 23.4123 56.5143 21.2673 56.5092 18.6183C56.504 15.9692 58.6489 13.8152 61.2992 13.8101C63.9495 13.8049 66.1034 15.951 66.1087 18.6001C66.1125 21.2492 63.9676 23.4019 61.3173 23.4071Z" fill="#F9F9F9"/>
<path fill-rule="evenodd" clip-rule="evenodd" d="M40.0382 60.5367C28.697 60.5587 19.4837 51.3829 19.4617 40.0389C19.4396 28.6974 28.6179 19.4827 39.9592 19.4607C51.3031 19.4386 60.5177 28.6197 60.5397 39.9598C60.5617 51.3039 51.3809 60.5147 40.0382 60.5367ZM39.9735 26.6678C32.6122 26.6808 26.6531 32.6619 26.6661 40.0246C26.6803 47.3886 32.6627 53.3464 40.024 53.3321C47.3879 53.3179 53.3469 47.3381 53.3326 39.9741C53.3184 32.6101 47.3361 26.6536 39.9735 26.6678Z" fill="#F9F9F9"/>
<path fill-rule="evenodd" clip-rule="evenodd" d="M13.7307 2.15493C16.2709 1.15959 19.1778 0.477874 23.4338 0.276994C27.7004 0.072242 29.0624 0.0255701 39.9229 0.00484207C50.786 -0.0158859 52.1481 0.0255621 56.4145 0.214778C60.6719 0.39881 63.5802 1.07016 66.1255 2.05515C68.759 3.06991 70.9933 4.43594 73.2198 6.65343C75.4464 8.87349 76.8175 11.1001 77.8452 13.7297C78.8393 16.2725 79.521 19.1769 79.7232 23.4356C79.9254 27.7008 79.9746 29.0616 79.9953 39.9235C80.0161 50.7842 79.9719 52.1476 79.7853 56.4167C79.6 60.6715 78.93 63.581 77.945 66.1251C76.9276 68.7586 75.5642 70.993 73.3468 73.2196C71.1293 75.4474 68.9002 76.8173 66.2707 77.8464C63.7279 78.8391 60.8236 79.5208 56.5675 79.7243C52.3011 79.9264 50.9389 79.9744 40.0745 79.9952C29.2153 80.0159 27.8533 79.9744 23.5868 79.7865C19.3294 79.5999 16.4199 78.9298 13.8758 77.9462C11.2424 76.9275 9.00807 75.5653 6.78152 73.3466C4.5537 71.1278 3.18129 68.8999 2.15486 66.2703C1.15952 63.7288 0.480357 60.8231 0.276909 56.5683C0.0734529 52.3005 0.0255169 50.9371 0.00479688 40.0765C-0.0160031 29.2145 0.0267889 27.8537 0.213389 23.5872C0.401333 19.3285 1.06879 16.4202 2.05376 13.8735C3.07109 11.2413 4.43448 9.00827 6.65456 6.78043C8.87201 4.55388 11.1011 3.18006 13.7307 2.15493ZM16.4718 71.2263C17.8831 71.7693 20.0008 72.4173 23.9005 72.5871C28.1202 72.7698 29.3838 72.81 40.0616 72.7893C50.7432 72.7698 52.0069 72.7244 56.2253 72.5262C60.1211 72.3408 62.2388 71.685 63.6462 71.1355C65.5138 70.4059 66.8435 69.5337 68.2405 68.1353C69.6376 66.7317 70.5021 65.3981 71.2253 63.5305C71.7696 62.1178 72.4163 59.9988 72.586 56.0991C72.7714 51.8819 72.8102 50.617 72.7895 39.9365C72.7701 29.2586 72.7247 27.9937 72.5239 23.7751C72.3398 19.878 71.6853 17.7603 71.1345 16.3541C70.4049 14.484 69.5353 13.1568 68.133 11.7584C66.7307 10.36 65.3971 9.49815 63.527 8.77499C62.1182 8.22938 59.998 7.58394 56.1009 7.41419C51.8811 7.22885 50.6162 7.19123 39.9359 7.212C29.2581 7.23273 27.9945 7.27548 23.776 7.4751C19.8777 7.66039 17.7626 8.31489 16.3525 8.86572C14.4862 9.59536 13.1565 10.4624 11.7582 11.866C10.3624 13.2696 9.49793 14.6006 8.77479 16.472C8.2331 17.8821 7.58115 20.0024 7.41401 23.8996C7.22993 28.1194 7.19109 29.3843 7.21182 40.0622C7.23128 50.7427 7.27661 52.0076 7.47492 56.2235C7.65764 60.1233 8.31727 62.2383 8.86552 63.6497C9.59516 65.5147 10.4648 66.8444 11.8658 68.2428C13.2694 69.636 14.6029 70.5031 16.4718 71.2263Z" fill="#F9F9F9"/>
</svg>
