<svg width="80" height="80" viewBox="0 0 80 80" fill="none" xmlns="http://www.w3.org/2000/svg">
<g clip-path="url(#clip0_1_458)">
<path d="M78.4066 20.6184C77.9543 18.9164 77.063 17.3631 75.8217 16.1139C74.5805 14.8647 73.0329 13.9634 71.3339 13.5002C65.0793 11.8184 40.0793 11.8184 40.0793 11.8184C40.0793 11.8184 15.0793 11.8184 8.8248 13.5002C7.12578 13.9634 5.57821 14.8647 4.33697 16.1139C3.09573 17.3631 2.20436 18.9164 1.75207 20.6184C0.0793459 26.9002 0.0793457 40.0002 0.0793457 40.0002C0.0793457 40.0002 0.0793459 53.1002 1.75207 59.382C2.20436 61.0839 3.09573 62.6373 4.33697 63.8865C5.57821 65.1357 7.12578 66.037 8.8248 66.5002C15.0793 68.182 40.0793 68.182 40.0793 68.182C40.0793 68.182 65.0793 68.182 71.3339 66.5002C73.0329 66.037 74.5805 65.1357 75.8217 63.8865C77.063 62.6373 77.9543 61.0839 78.4066 59.382C80.0794 53.1002 80.0793 40.0002 80.0793 40.0002C80.0793 40.0002 80.0794 26.9002 78.4066 20.6184Z" fill="white"/>
<path d="M31.8976 51.8954V28.1045L52.8067 39.9999L31.8976 51.8954Z" fill="black"/>
</g>
<defs>
<clipPath id="clip0_1_458">
<rect width="80" height="80" fill="white"/>
</clipPath>
</defs>
</svg>
